{
    "asset" : {
        "generator" : "Khronos glTF Blender I/O v1.4.40",
        "version" : "2.0"
    },
    "scene" : 0,
    "scenes" : [
        {
            "name" : "Scene",
            "nodes" : [
                0
            ]
        }
    ],
    "nodes" : [
        {
            "mesh" : 0,
            "name" : "Arches.001",
            "rotation" : [
                0.6519384980201721,
                -0.27381792664527893,
                0.2738179862499237,
                0.6519383788108826
            ],
            "scale" : [
                0.009999999776482582,
                0.009999999776482582,
                0.009999999776482582
            ]
        }
    ],
    "materials" : [
        {
            "doubleSided" : true,
            "name" : "ArchesMaterial",
            "pbrMetallicRoughness" : {
                "roughnessFactor" : 0.858578622341156
            }
        }
    ],
    "meshes" : [
        {
            "name" : "Mesh.029",
            "primitives" : [
                {
                    "attributes" : {
                        "POSITION" : 0,
                        "NORMAL" : 1,
                        "TEXCOORD_0" : 2
                    },
                    "indices" : 3,
                    "material" : 0
                }
            ]
        }
    ],
    "accessors" : [
        {
            "bufferView" : 0,
            "componentType" : 5126,
            "count" : 2152,
            "max" : [
                215.3995361328125,
                202.025146484375,
                53.03188705444336
            ],
            "min" : [
                -151.8170166015625,
                -130.019775390625,
                -125.92900085449219
            ],
            "type" : "VEC3"
        },
        {
            "bufferView" : 1,
            "componentType" : 5126,
            "count" : 2152,
            "type" : "VEC3"
        },
        {
            "bufferView" : 2,
            "componentType" : 5126,
            "count" : 2152,
            "type" : "VEC2"
        },
        {
            "bufferView" : 3,
            "componentType" : 5123,
            "count" : 3216,
            "type" : "SCALAR"
        }
    ],
    "bufferViews" : [
        {
            "buffer" : 0,
            "byteLength" : 25824,
            "byteOffset" : 0
        },
        {
            "buffer" : 0,
            "byteLength" : 25824,
            "byteOffset" : 25824
        },
        {
            "buffer" : 0,
            "byteLength" : 17216,
            "byteOffset" : 51648
        },
        {
            "buffer" : 0,
            "byteLength" : 6432,
            "byteOffset" : 68864
        }
    ],
    "buffers" : [
        {
            "byteLength" : 75296,
            "uri" : "data:application/octet-stream;base64,"
        }
    ]
}
