{
    "asset" : {
        "generator" : "Khronos glTF Blender I/O v1.4.40",
        "version" : "2.0"
    },
    "scene" : 0,
    "scenes" : [
        {
            "name" : "Scene",
            "nodes" : [
                0
            ]
        }
    ],
    "nodes" : [
        {
            "mesh" : 0,
            "name" : "Bat.001",
            "rotation" : [
                0.5,
                0.4999999701976776,
                -0.5000000596046448,
                0.4999999403953552
            ],
            "scale" : [
                0.009999999776482582,
                0.009999999776482582,
                0.009999999776482582
            ]
        }
    ],
    "materials" : [
        {
            "doubleSided" : true,
            "name" : "BatMaterial",
            "pbrMetallicRoughness" : {
                "baseColorFactor" : [
                    0.5879999995231628,
                    0.5879999995231628,
                    0.5879999995231628,
                    1
                ],
                "roughnessFactor" : 0.858578622341156
            }
        }
    ],
    "meshes" : [
        {
            "name" : "Mesh.028",
            "primitives" : [
                {
                    "attributes" : {
                        "POSITION" : 0,
                        "NORMAL" : 1,
                        "TEXCOORD_0" : 2,
                        "TEXCOORD_1" : 3
                    },
                    "indices" : 4,
                    "material" : 0
                }
            ]
        }
    ],
    "accessors" : [
        {
            "bufferView" : 0,
            "componentType" : 5126,
            "count" : 968,
            "max" : [
                107.05239868164062,
                76.87659454345703,
                540.9064331054688
            ],
            "min" : [
                -107.54890441894531,
                -33.51769256591797,
                -521.927001953125
            ],
            "type" : "VEC3"
        },
        {
            "bufferView" : 1,
            "componentType" : 5126,
            "count" : 968,
            "type" : "VEC3"
        },
        {
            "bufferView" : 2,
            "componentType" : 5126,
            "count" : 968,
            "type" : "VEC2"
        },
        {
            "bufferView" : 3,
            "componentType" : 5126,
            "count" : 968,
            "type" : "VEC2"
        },
        {
            "bufferView" : 4,
            "componentType" : 5123,
            "count" : 1452,
            "type" : "SCALAR"
        }
    ],
    "bufferViews" : [
        {
            "buffer" : 0,
            "byteLength" : 11616,
            "byteOffset" : 0
        },
        {
            "buffer" : 0,
            "byteLength" : 11616,
            "byteOffset" : 11616
        },
        {
            "buffer" : 0,
            "byteLength" : 7744,
            "byteOffset" : 23232
        },
        {
            "buffer" : 0,
            "byteLength" : 7744,
            "byteOffset" : 30976
        },
        {
            "buffer" : 0,
            "byteLength" : 2904,
            "byteOffset" : 38720
        }
    ],
    "buffers" : [
        {
            "byteLength" : 41624,
            "uri" : "data:application/octet-stream;base64,"
        }
    ]
}
