{
    "asset" : {
        "generator" : "Khronos glTF Blender I/O v1.4.40",
        "version" : "2.0"
    },
    "scene" : 0,
    "scenes" : [
        {
            "name" : "Scene",
            "nodes" : [
                0
            ]
        }
    ],
    "nodes" : [
        {
            "mesh" : 0,
            "name" : "Blox.001",
            "rotation" : [
                0.6863253712654114,
                0.17016920447349548,
                -0.17016923427581787,
                0.6863252520561218
            ],
            "scale" : [
                0.009999999776482582,
                0.009999999776482582,
                0.009999999776482582
            ]
        }
    ],
    "materials" : [
        {
            "doubleSided" : true,
            "name" : "BloxMaterial",
            "pbrMetallicRoughness" : {
                "roughnessFactor" : 0.858578622341156
            }
        }
    ],
    "meshes" : [
        {
            "name" : "Mesh.031",
            "primitives" : [
                {
                    "attributes" : {
                        "POSITION" : 0,
                        "NORMAL" : 1,
                        "TEXCOORD_0" : 2,
                        "TEXCOORD_1" : 3
                    },
                    "indices" : 4,
                    "material" : 0
                }
            ]
        }
    ],
    "accessors" : [
        {
            "bufferView" : 0,
            "componentType" : 5126,
            "count" : 20555,
            "max" : [
                402.82257080078125,
                527.0089721679688,
                83.9679183959961
            ],
            "min" : [
                -224.26467895507812,
                -307.7479248046875,
                -97.21277618408203
            ],
            "type" : "VEC3"
        },
        {
            "bufferView" : 1,
            "componentType" : 5126,
            "count" : 20555,
            "type" : "VEC3"
        },
        {
            "bufferView" : 2,
            "componentType" : 5126,
            "count" : 20555,
            "type" : "VEC2"
        },
        {
            "bufferView" : 3,
            "componentType" : 5126,
            "count" : 20555,
            "type" : "VEC2"
        },
        {
            "bufferView" : 4,
            "componentType" : 5123,
            "count" : 31812,
            "type" : "SCALAR"
        }
    ],
    "bufferViews" : [
        {
            "buffer" : 0,
            "byteLength" : 246660,
            "byteOffset" : 0
        },
        {
            "buffer" : 0,
            "byteLength" : 246660,
            "byteOffset" : 246660
        },
        {
            "buffer" : 0,
            "byteLength" : 164440,
            "byteOffset" : 493320
        },
        {
            "buffer" : 0,
            "byteLength" : 164440,
            "byteOffset" : 657760
        },
        {
            "buffer" : 0,
            "byteLength" : 63624,
            "byteOffset" : 822200
        }
    ],
    "buffers" : [
        {
            "byteLength" : 885824,
            "uri" : "data:application/octet-stream;base64,"
        }
    ]
}
