{
    "asset" : {
        "generator" : "Khronos glTF Blender I/O v1.4.40",
        "version" : "2.0"
    },
    "scene" : 0,
    "scenes" : [
        {
            "name" : "Scene",
            "nodes" : [
                0
            ]
        }
    ],
    "nodes" : [
        {
            "mesh" : 0,
            "name" : "Clock.001",
            "rotation" : [
                0.6610975861549377,
                -0.2508985996246338,
                0.25089865922927856,
                0.6610974669456482
            ],
            "scale" : [
                0.009999999776482582,
                0.009999999776482582,
                0.009999999776482582
            ]
        }
    ],
    "materials" : [
        {
            "doubleSided" : true,
            "name" : "ClockMaterial",
            "pbrMetallicRoughness" : {
                "baseColorFactor" : [
                    0.5882353186607361,
                    0.5882353186607361,
                    0.5882353186607361,
                    1
                ],
                "roughnessFactor" : 0.858578622341156
            }
        },
        {
            "doubleSided" : true,
            "name" : "ClockGlassMaterial",
            "pbrMetallicRoughness" : {
                "baseColorFactor" : [
                    0.5882353186607361,
                    0.5882353186607361,
                    0.5882353186607361,
                    1
                ],
                "roughnessFactor" : 0.858578622341156
            }
        }
    ],
    "meshes" : [
        {
            "name" : "Mesh.021",
            "primitives" : [
                {
                    "attributes" : {
                        "POSITION" : 0,
                        "NORMAL" : 1,
                        "TEXCOORD_0" : 2,
                        "TEXCOORD_1" : 3
                    },
                    "indices" : 4,
                    "material" : 0
                },
                {
                    "attributes" : {
                        "POSITION" : 5,
                        "NORMAL" : 6,
                        "TEXCOORD_0" : 7,
                        "TEXCOORD_1" : 8
                    },
                    "indices" : 9,
                    "material" : 1
                }
            ]
        }
    ],
    "accessors" : [
        {
            "bufferView" : 0,
            "componentType" : 5126,
            "count" : 6300,
            "max" : [
                170.160400390625,
                74.7351303100586,
                -3.7836761474609375
            ],
            "min" : [
                -169.662353515625,
                -56.71304702758789,
                -342.876953125
            ],
            "type" : "VEC3"
        },
        {
            "bufferView" : 1,
            "componentType" : 5126,
            "count" : 6300,
            "type" : "VEC3"
        },
        {
            "bufferView" : 2,
            "componentType" : 5126,
            "count" : 6300,
            "type" : "VEC2"
        },
        {
            "bufferView" : 3,
            "componentType" : 5126,
            "count" : 6300,
            "type" : "VEC2"
        },
        {
            "bufferView" : 4,
            "componentType" : 5123,
            "count" : 8634,
            "type" : "SCALAR"
        },
        {
            "bufferView" : 5,
            "componentType" : 5126,
            "count" : 308,
            "max" : [
                138.39306640625,
                -9.604223251342773,
                -3.5947723388671875
            ],
            "min" : [
                -104.82421875,
                -171.44998168945312,
                -173.5243682861328
            ],
            "type" : "VEC3"
        },
        {
            "bufferView" : 6,
            "componentType" : 5126,
            "count" : 308,
            "type" : "VEC3"
        },
        {
            "bufferView" : 7,
            "componentType" : 5126,
            "count" : 308,
            "type" : "VEC2"
        },
        {
            "bufferView" : 8,
            "componentType" : 5126,
            "count" : 308,
            "type" : "VEC2"
        },
        {
            "bufferView" : 9,
            "componentType" : 5123,
            "count" : 462,
            "type" : "SCALAR"
        }
    ],
    "bufferViews" : [
        {
            "buffer" : 0,
            "byteLength" : 75600,
            "byteOffset" : 0
        },
        {
            "buffer" : 0,
            "byteLength" : 75600,
            "byteOffset" : 75600
        },
        {
            "buffer" : 0,
            "byteLength" : 50400,
            "byteOffset" : 151200
        },
        {
            "buffer" : 0,
            "byteLength" : 50400,
            "byteOffset" : 201600
        },
        {
            "buffer" : 0,
            "byteLength" : 17268,
            "byteOffset" : 252000
        },
        {
            "buffer" : 0,
            "byteLength" : 3696,
            "byteOffset" : 269268
        },
        {
            "buffer" : 0,
            "byteLength" : 3696,
            "byteOffset" : 272964
        },
        {
            "buffer" : 0,
            "byteLength" : 2464,
            "byteOffset" : 276660
        },
        {
            "buffer" : 0,
            "byteLength" : 2464,
            "byteOffset" : 279124
        },
        {
            "buffer" : 0,
            "byteLength" : 924,
            "byteOffset" : 281588
        }
    ],
    "buffers" : [
        {
            "byteLength" : 282512,
            "uri" : "data:application/octet-stream;base64,"
        }
    ]
}
