{
    "asset" : {
        "generator" : "Khronos glTF Blender I/O v1.4.40",
        "version" : "2.0"
    },
    "scene" : 0,
    "scenes" : [
        {
            "name" : "Scene",
            "nodes" : [
                0
            ]
        }
    ],
    "nodes" : [
        {
            "mesh" : 0,
            "name" : "DollArm.001",
            "rotation" : [
                0.551758348941803,
                -0.44222474098205566,
                0.44222480058670044,
                0.5517582893371582
            ],
            "scale" : [
                0.009999999776482582,
                0.009999999776482582,
                0.009999999776482582
            ]
        }
    ],
    "materials" : [
        {
            "doubleSided" : true,
            "name" : "DollArmMaterial",
            "pbrMetallicRoughness" : {
                "baseColorFactor" : [
                    0.5882353186607361,
                    0.5882353186607361,
                    0.5882353186607361,
                    1
                ],
                "roughnessFactor" : 0.858578622341156
            }
        }
    ],
    "meshes" : [
        {
            "name" : "Mesh.035",
            "primitives" : [
                {
                    "attributes" : {
                        "POSITION" : 0,
                        "NORMAL" : 1,
                        "TEXCOORD_0" : 2,
                        "TEXCOORD_1" : 3
                    },
                    "indices" : 4,
                    "material" : 0
                }
            ]
        }
    ],
    "accessors" : [
        {
            "bufferView" : 0,
            "componentType" : 5126,
            "count" : 1153,
            "max" : [
                206.78024291992188,
                245.30360412597656,
                21.0989990234375
            ],
            "min" : [
                -206.78024291992188,
                -245.30360412597656,
                -146.5760498046875
            ],
            "type" : "VEC3"
        },
        {
            "bufferView" : 1,
            "componentType" : 5126,
            "count" : 1153,
            "type" : "VEC3"
        },
        {
            "bufferView" : 2,
            "componentType" : 5126,
            "count" : 1153,
            "type" : "VEC2"
        },
        {
            "bufferView" : 3,
            "componentType" : 5126,
            "count" : 1153,
            "type" : "VEC2"
        },
        {
            "bufferView" : 4,
            "componentType" : 5123,
            "count" : 6030,
            "type" : "SCALAR"
        }
    ],
    "bufferViews" : [
        {
            "buffer" : 0,
            "byteLength" : 13836,
            "byteOffset" : 0
        },
        {
            "buffer" : 0,
            "byteLength" : 13836,
            "byteOffset" : 13836
        },
        {
            "buffer" : 0,
            "byteLength" : 9224,
            "byteOffset" : 27672
        },
        {
            "buffer" : 0,
            "byteLength" : 9224,
            "byteOffset" : 36896
        },
        {
            "buffer" : 0,
            "byteLength" : 12060,
            "byteOffset" : 46120
        }
    ],
    "buffers" : [
        {
            "byteLength" : 58180,
            "uri" : "data:application/octet-stream;base64,"
        }
    ]
}
