{
    "asset" : {
        "generator" : "Khronos glTF Blender I/O v1.4.40",
        "version" : "2.0"
    },
    "scene" : 0,
    "scenes" : [
        {
            "name" : "Scene",
            "nodes" : [
                0
            ]
        }
    ],
    "nodes" : [
        {
            "mesh" : 0,
            "name" : "Firetruck.001",
            "rotation" : [
                0.62459796667099,
                -0.33147770166397095,
                0.3314777612686157,
                0.6245978474617004
            ],
            "scale" : [
                0.009999999776482582,
                0.009999999776482582,
                0.009999999776482582
            ]
        }
    ],
    "materials" : [
        {
            "doubleSided" : true,
            "name" : "FiretruckMaterial",
            "pbrMetallicRoughness" : {
                "roughnessFactor" : 0.858578622341156
            }
        }
    ],
    "meshes" : [
        {
            "name" : "Mesh.032",
            "primitives" : [
                {
                    "attributes" : {
                        "POSITION" : 0,
                        "NORMAL" : 1,
                        "TEXCOORD_0" : 2,
                        "TEXCOORD_1" : 3
                    },
                    "indices" : 4,
                    "material" : 0
                }
            ]
        }
    ],
    "accessors" : [
        {
            "bufferView" : 0,
            "componentType" : 5126,
            "count" : 8078,
            "max" : [
                158.414794921875,
                252.046875,
                102.46879577636719
            ],
            "min" : [
                -241.745849609375,
                -311.6998291015625,
                -128.38780212402344
            ],
            "type" : "VEC3"
        },
        {
            "bufferView" : 1,
            "componentType" : 5126,
            "count" : 8078,
            "type" : "VEC3"
        },
        {
            "bufferView" : 2,
            "componentType" : 5126,
            "count" : 8078,
            "type" : "VEC2"
        },
        {
            "bufferView" : 3,
            "componentType" : 5126,
            "count" : 8078,
            "type" : "VEC2"
        },
        {
            "bufferView" : 4,
            "componentType" : 5123,
            "count" : 12498,
            "type" : "SCALAR"
        }
    ],
    "bufferViews" : [
        {
            "buffer" : 0,
            "byteLength" : 96936,
            "byteOffset" : 0
        },
        {
            "buffer" : 0,
            "byteLength" : 96936,
            "byteOffset" : 96936
        },
        {
            "buffer" : 0,
            "byteLength" : 64624,
            "byteOffset" : 193872
        },
        {
            "buffer" : 0,
            "byteLength" : 64624,
            "byteOffset" : 258496
        },
        {
            "buffer" : 0,
            "byteLength" : 24996,
            "byteOffset" : 323120
        }
    ],
    "buffers" : [
        {
            "byteLength" : 348116,
            "uri" : "data:application/octet-stream;base64,"
        }
    ]
}
