{
    "asset" : {
        "generator" : "Khronos glTF Blender I/O v1.4.40",
        "version" : "2.0"
    },
    "scene" : 0,
    "scenes" : [
        {
            "name" : "Scene",
            "nodes" : [
                0
            ]
        }
    ],
    "nodes" : [
        {
            "mesh" : 0,
            "name" : "Hearse.001",
            "rotation" : [
                0.7022683024406433,
                -0.08257829397916794,
                -0.0825788602232933,
                -0.7022683024406433
            ],
            "scale" : [
                0.009999999776482582,
                0.009999999776482582,
                0.009999999776482582
            ]
        }
    ],
    "materials" : [
        {
            "doubleSided" : true,
            "name" : "HearseMaterial",
            "pbrMetallicRoughness" : {
                "roughnessFactor" : 0.7171573042869568
            }
        }
    ],
    "meshes" : [
        {
            "name" : "Mesh.030",
            "primitives" : [
                {
                    "attributes" : {
                        "POSITION" : 0,
                        "NORMAL" : 1,
                        "TEXCOORD_0" : 2,
                        "TEXCOORD_1" : 3,
                        "COLOR_0" : 4
                    },
                    "indices" : 5,
                    "material" : 0
                }
            ]
        }
    ],
    "accessors" : [
        {
            "bufferView" : 0,
            "componentType" : 5126,
            "count" : 3467,
            "max" : [
                102.79621887207031,
                324.2380676269531,
                4.348754737293348e-05
            ],
            "min" : [
                -102.79621887207031,
                -324.2380676269531,
                -186.87110900878906
            ],
            "type" : "VEC3"
        },
        {
            "bufferView" : 1,
            "componentType" : 5126,
            "count" : 3467,
            "type" : "VEC3"
        },
        {
            "bufferView" : 2,
            "componentType" : 5126,
            "count" : 3467,
            "type" : "VEC2"
        },
        {
            "bufferView" : 3,
            "componentType" : 5126,
            "count" : 3467,
            "type" : "VEC2"
        },
        {
            "bufferView" : 4,
            "componentType" : 5123,
            "count" : 3467,
            "normalized" : true,
            "type" : "VEC4"
        },
        {
            "bufferView" : 5,
            "componentType" : 5123,
            "count" : 8478,
            "type" : "SCALAR"
        }
    ],
    "bufferViews" : [
        {
            "buffer" : 0,
            "byteLength" : 41604,
            "byteOffset" : 0
        },
        {
            "buffer" : 0,
            "byteLength" : 41604,
            "byteOffset" : 41604
        },
        {
            "buffer" : 0,
            "byteLength" : 27736,
            "byteOffset" : 83208
        },
        {
            "buffer" : 0,
            "byteLength" : 27736,
            "byteOffset" : 110944
        },
        {
            "buffer" : 0,
            "byteLength" : 27736,
            "byteOffset" : 138680
        },
        {
            "buffer" : 0,
            "byteLength" : 16956,
            "byteOffset" : 166416
        }
    ],
    "buffers" : [
        {
            "byteLength" : 183372,
            "uri" : "data:application/octet-stream;base64,"
        }
    ]
}
