{
    "asset" : {
        "generator" : "Khronos glTF Blender I/O v1.4.40",
        "version" : "2.0"
    },
    "scene" : 0,
    "scenes" : [
        {
            "name" : "Scene",
            "nodes" : [
                0
            ]
        }
    ],
    "nodes" : [
        {
            "mesh" : 0,
            "name" : "Stars.001",
            "rotation" : [
                0.7071068286895752,
                0,
                0,
                0.7071067094802856
            ],
            "scale" : [
                0.009999999776482582,
                0.009999999776482582,
                0.009999999776482582
            ]
        }
    ],
    "materials" : [
        {
            "doubleSided" : true,
            "name" : "StarMaterial",
            "pbrMetallicRoughness" : {
                "baseColorFactor" : [
                    0.8352941870689392,
                    1,
                    0.5176470875740051,
                    1
                ],
                "roughnessFactor" : 0.858578622341156
            }
        }
    ],
    "meshes" : [
        {
            "name" : "Mesh.023",
            "primitives" : [
                {
                    "attributes" : {
                        "POSITION" : 0,
                        "NORMAL" : 1,
                        "TEXCOORD_0" : 2,
                        "TEXCOORD_1" : 3
                    },
                    "indices" : 4,
                    "material" : 0
                }
            ]
        }
    ],
    "accessors" : [
        {
            "bufferView" : 0,
            "componentType" : 5126,
            "count" : 1760,
            "max" : [
                4823.857421875,
                42.344749450683594,
                -463.11578369140625
            ],
            "min" : [
                -41.0417366027832,
                -4832.98291015625,
                -3459.12744140625
            ],
            "type" : "VEC3"
        },
        {
            "bufferView" : 1,
            "componentType" : 5126,
            "count" : 1760,
            "type" : "VEC3"
        },
        {
            "bufferView" : 2,
            "componentType" : 5126,
            "count" : 1760,
            "type" : "VEC2"
        },
        {
            "bufferView" : 3,
            "componentType" : 5126,
            "count" : 1760,
            "type" : "VEC2"
        },
        {
            "bufferView" : 4,
            "componentType" : 5123,
            "count" : 4488,
            "type" : "SCALAR"
        }
    ],
    "bufferViews" : [
        {
            "buffer" : 0,
            "byteLength" : 21120,
            "byteOffset" : 0
        },
        {
            "buffer" : 0,
            "byteLength" : 21120,
            "byteOffset" : 21120
        },
        {
            "buffer" : 0,
            "byteLength" : 14080,
            "byteOffset" : 42240
        },
        {
            "buffer" : 0,
            "byteLength" : 14080,
            "byteOffset" : 56320
        },
        {
            "buffer" : 0,
            "byteLength" : 8976,
            "byteOffset" : 70400
        }
    ],
    "buffers" : [
        {
            "byteLength" : 79376,
            "uri" : "data:application/octet-stream;base64,"
        }
    ]
}
