{
    "asset" : {
        "generator" : "Khronos glTF Blender I/O v1.4.40",
        "version" : "2.0"
    },
    "scene" : 0,
    "scenes" : [
        {
            "name" : "Scene",
            "nodes" : [
                0
            ]
        }
    ],
    "nodes" : [
        {
            "mesh" : 0,
            "name" : "Stool.001",
            "rotation" : [
                0.4777144193649292,
                -0.5213338136672974,
                0.5213338136672974,
                0.4777143895626068
            ],
            "scale" : [
                0.009999999776482582,
                0.009999999776482582,
                0.009999999776482582
            ]
        }
    ],
    "materials" : [
        {
            "doubleSided" : true,
            "name" : "StoolMaterial",
            "pbrMetallicRoughness" : {
                "roughnessFactor" : 0.7171573042869568
            }
        }
    ],
    "meshes" : [
        {
            "name" : "Mesh.034",
            "primitives" : [
                {
                    "attributes" : {
                        "POSITION" : 0,
                        "NORMAL" : 1,
                        "TEXCOORD_0" : 2,
                        "TEXCOORD_1" : 3
                    },
                    "indices" : 4,
                    "material" : 0
                }
            ]
        }
    ],
    "accessors" : [
        {
            "bufferView" : 0,
            "componentType" : 5126,
            "count" : 2250,
            "max" : [
                340.03955078125,
                340.5992431640625,
                439.46026611328125
            ],
            "min" : [
                -352.8733825683594,
                -352.3136901855469,
                -116.27731323242188
            ],
            "type" : "VEC3"
        },
        {
            "bufferView" : 1,
            "componentType" : 5126,
            "count" : 2250,
            "type" : "VEC3"
        },
        {
            "bufferView" : 2,
            "componentType" : 5126,
            "count" : 2250,
            "type" : "VEC2"
        },
        {
            "bufferView" : 3,
            "componentType" : 5126,
            "count" : 2250,
            "type" : "VEC2"
        },
        {
            "bufferView" : 4,
            "componentType" : 5123,
            "count" : 11274,
            "type" : "SCALAR"
        }
    ],
    "bufferViews" : [
        {
            "buffer" : 0,
            "byteLength" : 27000,
            "byteOffset" : 0
        },
        {
            "buffer" : 0,
            "byteLength" : 27000,
            "byteOffset" : 27000
        },
        {
            "buffer" : 0,
            "byteLength" : 18000,
            "byteOffset" : 54000
        },
        {
            "buffer" : 0,
            "byteLength" : 18000,
            "byteOffset" : 72000
        },
        {
            "buffer" : 0,
            "byteLength" : 22548,
            "byteOffset" : 90000
        }
    ],
    "buffers" : [
        {
            "byteLength" : 112548,
            "uri" : "data:application/octet-stream;base64,"
        }
    ]
}
