{
    "asset" : {
        "generator" : "Khronos glTF Blender I/O v1.4.40",
        "version" : "2.0"
    },
    "scene" : 0,
    "scenes" : [
        {
            "name" : "Scene",
            "nodes" : [
                0
            ]
        }
    ],
    "nodes" : [
        {
            "mesh" : 0,
            "name" : "Train.001",
            "rotation" : [
                0.09229599684476852,
                0.7010573148727417,
                -0.7010574340820312,
                0.09229598194360733
            ],
            "scale" : [
                0.009999999776482582,
                0.009999999776482582,
                0.009999999776482582
            ]
        }
    ],
    "materials" : [
        {
            "doubleSided" : true,
            "name" : "TrainMaterial",
            "pbrMetallicRoughness" : {
                "metallicFactor" : 0,
                "roughnessFactor" : 0.5527864098548889
            }
        }
    ],
    "meshes" : [
        {
            "name" : "Mesh.018",
            "primitives" : [
                {
                    "attributes" : {
                        "POSITION" : 0,
                        "NORMAL" : 1,
                        "TEXCOORD_0" : 2,
                        "TEXCOORD_1" : 3,
                        "COLOR_0" : 4
                    },
                    "indices" : 5,
                    "material" : 0
                }
            ]
        }
    ],
    "accessors" : [
        {
            "bufferView" : 0,
            "componentType" : 5126,
            "count" : 3131,
            "max" : [
                199.05889892578125,
                198.81341552734375,
                3.364208698272705
            ],
            "min" : [
                -199.05889892578125,
                -198.81338500976562,
                -208.77862548828125
            ],
            "type" : "VEC3"
        },
        {
            "bufferView" : 1,
            "componentType" : 5126,
            "count" : 3131,
            "type" : "VEC3"
        },
        {
            "bufferView" : 2,
            "componentType" : 5126,
            "count" : 3131,
            "type" : "VEC2"
        },
        {
            "bufferView" : 3,
            "componentType" : 5126,
            "count" : 3131,
            "type" : "VEC2"
        },
        {
            "bufferView" : 4,
            "componentType" : 5123,
            "count" : 3131,
            "normalized" : true,
            "type" : "VEC4"
        },
        {
            "bufferView" : 5,
            "componentType" : 5123,
            "count" : 5508,
            "type" : "SCALAR"
        }
    ],
    "bufferViews" : [
        {
            "buffer" : 0,
            "byteLength" : 37572,
            "byteOffset" : 0
        },
        {
            "buffer" : 0,
            "byteLength" : 37572,
            "byteOffset" : 37572
        },
        {
            "buffer" : 0,
            "byteLength" : 25048,
            "byteOffset" : 75144
        },
        {
            "buffer" : 0,
            "byteLength" : 25048,
            "byteOffset" : 100192
        },
        {
            "buffer" : 0,
            "byteLength" : 25048,
            "byteOffset" : 125240
        },
        {
            "buffer" : 0,
            "byteLength" : 11016,
            "byteOffset" : 150288
        }
    ],
    "buffers" : [
        {
            "byteLength" : 161304,
            "uri" : "data:application/octet-stream;base64,"
        }
    ]
}
