{
    "asset" : {
        "generator" : "Khronos glTF Blender I/O v1.4.40",
        "version" : "2.0"
    },
    "scene" : 0,
    "scenes" : [
        {
            "name" : "Scene",
            "nodes" : [
                0
            ]
        }
    ],
    "nodes" : [
        {
            "mesh" : 0,
            "name" : "Wall.001",
            "rotation" : [
                0.7071068286895752,
                0,
                0,
                0.7071067094802856
            ],
            "scale" : [
                0.009999999776482582,
                0.009999999776482582,
                0.009999999776482582
            ]
        }
    ],
    "materials" : [
        {
            "doubleSided" : true,
            "name" : "WallMaterial",
            "pbrMetallicRoughness" : {
                "roughnessFactor" : 0.858578622341156
            }
        }
    ],
    "meshes" : [
        {
            "name" : "Mesh.022",
            "primitives" : [
                {
                    "attributes" : {
                        "POSITION" : 0,
                        "NORMAL" : 1,
                        "TEXCOORD_0" : 2,
                        "TEXCOORD_1" : 3
                    },
                    "indices" : 4,
                    "material" : 0
                }
            ]
        }
    ],
    "accessors" : [
        {
            "bufferView" : 0,
            "componentType" : 5126,
            "count" : 1095,
            "max" : [
                4941.87158203125,
                72.7421875,
                3.433213233947754
            ],
            "min" : [
                -282.92962646484375,
                -4941.87255859375,
                -4161.3056640625
            ],
            "type" : "VEC3"
        },
        {
            "bufferView" : 1,
            "componentType" : 5126,
            "count" : 1095,
            "type" : "VEC3"
        },
        {
            "bufferView" : 2,
            "componentType" : 5126,
            "count" : 1095,
            "type" : "VEC2"
        },
        {
            "bufferView" : 3,
            "componentType" : 5126,
            "count" : 1095,
            "type" : "VEC2"
        },
        {
            "bufferView" : 4,
            "componentType" : 5123,
            "count" : 3168,
            "type" : "SCALAR"
        }
    ],
    "bufferViews" : [
        {
            "buffer" : 0,
            "byteLength" : 13140,
            "byteOffset" : 0
        },
        {
            "buffer" : 0,
            "byteLength" : 13140,
            "byteOffset" : 13140
        },
        {
            "buffer" : 0,
            "byteLength" : 8760,
            "byteOffset" : 26280
        },
        {
            "buffer" : 0,
            "byteLength" : 8760,
            "byteOffset" : 35040
        },
        {
            "buffer" : 0,
            "byteLength" : 6336,
            "byteOffset" : 43800
        }
    ],
    "buffers" : [
        {
            "byteLength" : 50136,
            "uri" : "data:application/octet-stream;base64,"
        }
    ]
}
